<svg width="120" height="140" viewBox="0 0 120 140" xmlns="http://www.w3.org/2000/svg">
<line x1="30.0" y1="25" x2="30.0" y2="120.0" stroke="#475569" stroke-width="2"/>
<line x1="45.0" y1="25" x2="45.0" y2="120.0" stroke="#475569" stroke-width="1"/>
<line x1="60.0" y1="25" x2="60.0" y2="120.0" stroke="#475569" stroke-width="1"/>
<line x1="75.0" y1="25" x2="75.0" y2="120.0" stroke="#475569" stroke-width="1"/>
<line x1="90.0" y1="25" x2="90.0" y2="120.0" stroke="#475569" stroke-width="1"/>
<line x1="105.0" y1="25" x2="105.0" y2="120.0" stroke="#475569" stroke-width="1"/>
<line x1="30" y1="25.0" x2="105.0" y2="25.0" stroke="#475569" stroke-width="4"/>
<line x1="30" y1="48.75" x2="105.0" y2="48.75" stroke="#475569" stroke-width="1"/>
<line x1="30" y1="72.5" x2="105.0" y2="72.5" stroke="#475569" stroke-width="1"/>
<line x1="30" y1="96.25" x2="105.0" y2="96.25" stroke="#475569" stroke-width="1"/>
<line x1="30" y1="120.0" x2="105.0" y2="120.0" stroke="#475569" stroke-width="1"/>
<circle cx="30.0" cy="15" r="4" fill="none" stroke="#94a3b8" stroke-width="2"/>
<circle cx="45.0" cy="60.625" r="8" fill="#6366f1"/>
<text x="45.0" y="61.625" text-anchor="middle" dominant-baseline="middle" font-family="system-ui" font-size="10" font-weight="700" fill="#fff">2</text>
<circle cx="60.0" cy="60.625" r="8" fill="#6366f1"/>
<text x="60.0" y="61.625" text-anchor="middle" dominant-baseline="middle" font-family="system-ui" font-size="10" font-weight="700" fill="#fff">3</text>
<circle cx="75.0" cy="36.875" r="8" fill="#6366f1"/>
<text x="75.0" y="37.875" text-anchor="middle" dominant-baseline="middle" font-family="system-ui" font-size="10" font-weight="700" fill="#fff">1</text>
<circle cx="90.0" cy="15" r="4" fill="none" stroke="#94a3b8" stroke-width="2"/>
<circle cx="105.0" cy="15" r="4" fill="none" stroke="#94a3b8" stroke-width="2"/>
</svg>