<svg width="120" height="150" xmlns="http://www.w3.org/2000/svg">
<rect width="100%" height="100%" fill="none"/>
<text x="60.0" y="22" text-anchor="middle" font-family="Arial" font-size="18" font-weight="bold" fill="#fff">E7</text>
<line x1="25.0" y1="35" x2="25.0" y2="125.0" stroke="#888" stroke-width="2.5"/>
<line x1="41.0" y1="35" x2="41.0" y2="125.0" stroke="#888" stroke-width="1"/>
<line x1="57.0" y1="35" x2="57.0" y2="125.0" stroke="#888" stroke-width="1"/>
<line x1="73.0" y1="35" x2="73.0" y2="125.0" stroke="#888" stroke-width="1"/>
<line x1="89.0" y1="35" x2="89.0" y2="125.0" stroke="#888" stroke-width="1"/>
<line x1="105.0" y1="35" x2="105.0" y2="125.0" stroke="#888" stroke-width="1"/>
<line x1="25" y1="35.0" x2="105.0" y2="35.0" stroke="#888" stroke-width="5"/>
<line x1="25" y1="57.5" x2="105.0" y2="57.5" stroke="#888" stroke-width="1"/>
<line x1="25" y1="80.0" x2="105.0" y2="80.0" stroke="#888" stroke-width="1"/>
<line x1="25" y1="102.5" x2="105.0" y2="102.5" stroke="#888" stroke-width="1"/>
<line x1="25" y1="125.0" x2="105.0" y2="125.0" stroke="#888" stroke-width="1"/>
<text x="25.0" y="23" text-anchor="middle" font-family="Arial" font-size="16" fill="#94a3b8">○</text>
<circle cx="41.0" cy="68.75" r="8.5" fill="#6366f1"/>
<text x="41.0" y="69.75" text-anchor="middle" font-family="Arial" font-size="11" fill="#fff" font-weight="bold">2</text>
<text x="57.0" y="23" text-anchor="middle" font-family="Arial" font-size="16" fill="#94a3b8">○</text>
<circle cx="73.0" cy="46.25" r="8.5" fill="#6366f1"/>
<text x="73.0" y="47.25" text-anchor="middle" font-family="Arial" font-size="11" fill="#fff" font-weight="bold">1</text>
<text x="89.0" y="23" text-anchor="middle" font-family="Arial" font-size="16" fill="#94a3b8">○</text>
<text x="105.0" y="23" text-anchor="middle" font-family="Arial" font-size="16" fill="#94a3b8">○</text>
</svg>